<svg width="14" height="14" viewBox="0 0 14 14" fill="none" xmlns="http://www.w3.org/2000/svg">
<path d="M4.74246 13.2109C4.57323 13.2109 4.41093 13.1437 4.29127 13.024C4.1716 12.9043 4.10438 12.742 4.10438 12.5728V10.6585H1.55204C1.21358 10.6585 0.888987 10.5241 0.649659 10.2848C0.410332 10.0454 0.275879 9.72084 0.275879 9.38238V1.72538C0.275879 1.01711 0.850153 0.449219 1.55204 0.449219H11.7614C12.0998 0.449219 12.4244 0.583671 12.6638 0.822999C12.9031 1.06233 13.0375 1.38692 13.0375 1.72538V9.38238C13.0375 9.72084 12.9031 10.0454 12.6638 10.2848C12.4244 10.5241 12.0998 10.6585 11.7614 10.6585H7.86906L5.50816 13.0258C5.38054 13.1471 5.22102 13.2109 5.0615 13.2109H4.74246ZM5.38054 9.38238V11.3477L7.34584 9.38238H11.7614V1.72538H1.55204V9.38238H5.38054Z" fill="#1565D8"/>
</svg>
