<svg width="15" height="14" viewBox="0 0 15 14" fill="none" xmlns="http://www.w3.org/2000/svg">
<path d="M3.19052 5.55388V13.2109H0.638184V5.55388H3.19052ZM5.74285 13.2109C5.40439 13.2109 5.07979 13.0764 4.84046 12.8371C4.60113 12.5978 4.46668 12.2732 4.46668 11.9347V5.55388C4.46668 5.20294 4.60706 4.88389 4.84315 4.65418L9.04174 0.449219L9.7181 1.12559C9.89039 1.29787 9.99886 1.53396 9.99886 1.79557L9.97972 1.99976L9.37354 4.9158H13.3998C14.1081 4.9158 14.676 5.49007 14.676 6.19196V7.46813C14.676 7.63403 14.6441 7.78717 14.5867 7.93393L12.6597 12.4324C12.4682 12.8918 12.0152 13.2109 11.4856 13.2109H5.74285ZM5.74285 11.9347H11.5047L13.3998 7.46813V6.19196H7.79109L8.51213 2.79736L5.74285 5.57302V11.9347Z" fill="#1565D8"/>
</svg>
