<svg width="27" height="27" viewBox="0 0 27 27" fill="none" xmlns="http://www.w3.org/2000/svg">
<path d="M23.7083 23.7083H3.29167V3.29167H23.7083M23.7083 0.375H3.29167C2.51812 0.375 1.77625 0.682291 1.22927 1.22927C0.682291 1.77625 0.375 2.51812 0.375 3.29167V23.7083C0.375 24.4819 0.682291 25.2237 1.22927 25.7707C1.77625 26.3177 2.51812 26.625 3.29167 26.625H23.7083C24.4819 26.625 25.2237 26.3177 25.7707 25.7707C26.3177 25.2237 26.625 24.4819 26.625 23.7083V3.29167C26.625 2.51812 26.3177 1.77625 25.7707 1.22927C25.2237 0.682291 24.4819 0.375 23.7083 0.375ZM16.3583 13.9229L12.3479 19.0854L9.48958 15.6438L5.47917 20.7917H21.5208L16.3583 13.9229Z" fill="#1565D8"/>
</svg>
